<?xml version="1.0" encoding="UTF-8"?>
<!DOCTYPE svg PUBLIC "-//W3C//DTD SVG 1.0//EN" "http://www.w3.org/TR/2001/REC-SVG-20010904/DTD/svg10.dtd">
<svg xmlns="http://www.w3.org/2000/svg" xml:space="preserve" width="5.26343in" height="1.9685in" version="1.0" style="shape-rendering:geometricPrecision; text-rendering:geometricPrecision; image-rendering:optimizeQuality; fill-rule:evenodd; clip-rule:evenodd"
viewBox="0 0 5549 2075"
 xmlns:xlink="http://www.w3.org/1999/xlink">
 <defs>
  <style type="text/css">
   <![CDATA[
    .str0 {stroke:black;stroke-width:12.4524;stroke-linecap:round;stroke-linejoin:round}
    .fil1 {fill:none}
    .fil3 {fill:black}
    .fil0 {fill:white}
    .fil2 {fill:black;fill-rule:nonzero}
    .fnt1 {font-weight:normal;font-size:131.784px;font-family:'Arial'}
    .fnt0 {font-style:italic;font-weight:normal;font-size:175.716px;font-family:'Arial'}
   ]]>
  </style>
 </defs>
 <g id="Layer_x0020_1">
  <rect class="fil0" width="5549" height="2075"/>
  <polyline class="fil1 str0" points="703,1245 703,1868 1533,1868 1533,1245 1461,1211 1606,1141 1461,1072 1606,1003 1461,934 1606,865 1533,830 1533,208 703,208 703,830 "/>
  <g>
   <path class="fil2" d="M1606 1003l90 -45 0 90 -90 -45zm86 -6l0 12 0 0 0 0 0 0 0 0 0 0 0 0 0 0 0 0 0 0 0 0 0 0 0 0 0 0 0 0 0 0 0 0 0 0 0 0 0 0 0 0 0 0 0 0 0 0 0 0 0 0 0 0 0 0 0 0 0 0 0 0 0 0 0 0 0 0 0 0 0 0 0 0 0 0 0 0 0 0 0 0 0 0 0 0 0 0 0 0 0 0 0 0 0 0 0 0 0 0 0 0 0 0 0 0 0 0 0 0 0 0 0 0 0 0 0 0 0 0 0 0 0 0 0 0 0 0 0 0zm672 12l-672 0 0 -12 672 0 6 6 -6 6zm0 0l0 -12 0 0 0 0 0 0 0 0 0 0 0 0 0 0 0 0 0 0 0 0 0 0 0 0 0 0 0 0 0 0 0 0 0 0 0 0 0 0 0 0 0 0 0 0 0 0 0 0 0 0 0 0 0 0 0 0 0 0 0 0 0 0 0 0 0 0 0 0 0 0 0 0 0 0 0 0 0 0 0 0 0 0 0 0 0 0 0 0 0 0 0 0 0 0 0 0 0 0 0 0 0 0 0 0 0 0 0 0 0 0 0 0 0 0 0 0 0 0 0 0 0 0 0 0 0 0 0 0zm-6 219l0 -225 12 0 0 225 -9 6 -4 -6zm0 0l12 0 0 0 0 0 0 0 0 0 0 0 0 0 0 0 0 0 0 0 0 0 0 0 0 0 0 0 0 0 0 0 0 0 0 0 0 0 0 0 0 0 0 0 0 0 0 0 0 0 0 0 0 0 0 0 0 0 0 0 0 0 0 0 0 0 0 0 0 0 0 0 0 0 0 0 0 0 0 0 0 0 0 0 0 0 0 0 0 0 0 0 0 0 0 0 0 0 0 0 0 0 0 0 0 0 0 0 0 0 0 0 0 0 0 0 0 0 0 0 0 0 0 0 0 0 0 0 0 0zm76 40l-73 -35 5 -11 73 35 0 11 -5 0zm0 0l5 -11 0 0 0 0 0 0 0 0 0 0 0 0 0 0 0 0 0 0 0 0 0 0 0 0 0 0 0 0 0 0 0 0 0 0 0 0 0 0 0 0 0 0 0 0 0 0 0 0 0 0 0 0 0 0 0 0 0 0 0 0 0 0 0 0 0 0 0 0 0 0 0 0 0 0 0 0 0 0 0 0 0 0 0 0 0 0 0 0 0 0 0 0 0 0 0 0 0 0 0 0 0 0 0 0 0 0 0 0 0 0 0 0 0 0 0 0 0 0 0 0 0 0 0 0 0 0 0 0zm-145 58l145 -69 5 11 -145 69 -5 0 0 -11zm0 0l5 11 0 0 0 0 0 0 0 0 0 0 0 0 0 0 0 0 0 0 0 0 0 0 0 0 0 0 0 0 0 0 0 0 0 0 0 0 0 0 0 0 0 0 0 0 0 0 0 0 0 0 0 0 0 0 0 0 0 0 0 0 0 0 0 0 0 0 0 0 0 0 0 0 0 0 0 0 0 0 0 0 0 0 0 0 0 0 0 0 0 0 0 0 0 0 0 0 0 0 0 0 0 0 0 0 0 0 0 0 0 0 0 0 0 0 0 0 0 0 0 0 0 0 0 0 0 0 0 0zm145 80l-145 -69 5 -11 145 69 0 11 -5 0zm0 0l5 -11 0 0 0 0 0 0 0 0 0 0 0 0 0 0 0 0 0 0 0 0 0 0 0 0 0 0 0 0 0 0 0 0 0 0 0 0 0 0 0 0 0 0 0 0 0 0 0 0 0 0 0 0 0 0 0 0 0 0 0 0 0 0 0 0 0 0 0 0 0 0 0 0 0 0 0 0 0 0 0 0 0 0 0 0 0 0 0 0 0 0 0 0 0 0 0 0 0 0 0 0 0 0 0 0 0 0 0 0 0 0 0 0 0 0 0 0 0 0 0 0 0 0 0 0 0 0 0 0zm-145 58l145 -69 5 11 -145 69 -5 0 0 -11zm0 0l5 11 0 0 0 0 0 0 0 0 0 0 0 0 0 0 0 0 0 0 0 0 0 0 0 0 0 0 0 0 0 0 0 0 0 0 0 0 0 0 0 0 0 0 0 0 0 0 0 0 0 0 0 0 0 0 0 0 0 0 0 0 0 0 0 0 0 0 0 0 0 0 0 0 0 0 0 0 0 0 0 0 0 0 0 0 0 0 0 0 0 0 0 0 0 0 0 0 0 0 0 0 0 0 0 0 0 0 0 0 0 0 0 0 0 0 0 0 0 0 0 0 0 0 0 0 0 0 0 0zm145 80l-145 -69 5 -11 145 69 0 11 -5 0zm0 0l5 -11 0 0 0 0 0 0 0 0 0 0 0 0 0 0 0 0 0 0 0 0 0 0 0 0 0 0 0 0 0 0 0 0 0 0 0 0 0 0 0 0 0 0 0 0 0 0 0 0 0 0 0 0 0 0 0 0 0 0 0 0 0 0 0 0 0 0 0 0 0 0 0 0 0 0 0 0 0 0 0 0 0 0 0 0 0 0 0 0 0 0 0 0 0 0 0 0 0 0 0 0 0 0 0 0 0 0 0 0 0 0 0 0 0 0 0 0 0 0 0 0 0 0 0 0 0 0 0 0zm-145 58l145 -69 5 11 -145 69 -5 0 0 -11zm0 0l5 11 0 0 0 0 0 0 0 0 0 0 0 0 0 0 0 0 0 0 0 0 0 0 0 0 0 0 0 0 0 0 0 0 0 0 0 0 0 0 0 0 0 0 0 0 0 0 0 0 0 0 0 0 0 0 0 0 0 0 0 0 0 0 0 0 0 0 0 0 0 0 0 0 0 0 0 0 0 0 0 0 0 0 0 0 0 0 0 0 0 0 0 0 0 0 0 0 0 0 0 0 0 0 0 0 0 0 0 0 0 0 0 0 0 0 0 0 0 0 0 0 0 0 0 0 0 0 0 0zm73 46l-73 -35 5 -11 73 35 4 6 -9 6zm0 0l5 -11 0 0 0 0 0 0 0 0 0 0 0 0 0 0 0 0 0 0 0 0 0 0 0 0 0 0 0 0 0 0 0 0 0 0 0 0 0 0 0 0 0 0 0 0 0 0 0 0 0 0 0 0 0 0 0 0 0 0 0 0 0 0 0 0 0 0 0 0 0 0 0 0 0 0 0 0 0 0 0 0 0 0 0 0 0 0 0 0 0 0 0 0 0 0 0 0 0 0 0 0 0 0 0 0 0 0 0 0 0 0 0 0 0 0 0 0 0 0 0 0 0 0 0 0 0 0 0 0zm-4 219l0 -225 12 0 0 225 -6 6 -6 -6zm0 0l12 0 0 0 0 0 0 0 0 0 0 0 0 0 0 0 0 0 0 0 0 0 0 0 0 0 0 0 0 0 0 0 0 0 0 0 0 0 0 0 0 0 0 0 0 0 0 0 0 0 0 0 0 0 0 0 0 0 0 0 0 0 0 0 0 0 0 0 0 0 0 0 0 0 0 0 0 0 0 0 0 0 0 0 0 0 0 0 0 0 0 0 0 0 0 0 0 0 0 0 0 0 0 0 0 0 0 0 0 0 0 0 0 0 0 0 0 0 0 0 0 0 0 0 0 0 0 0 0 0zm-824 -6l830 0 0 12 -830 0 0 -12zm0 0l0 12 0 0 0 0 0 0 0 0 0 0 0 0 0 0 0 0 0 0 0 0 0 0 0 0 0 0 0 0 0 0 0 0 0 0 0 0 0 0 0 0 0 0 0 0 0 0 0 0 0 0 0 0 0 0 0 0 0 0 0 0 0 0 0 0 0 0 0 0 0 0 0 0 0 0 0 0 0 0 0 0 0 0 0 0 0 0 0 0 0 0 0 0 0 0 0 0 0 0 0 0 0 0 0 0 0 0 0 0 0 0 0 0 0 0 0 0 0 0 0 0 0 0 0 0 0 0 0 0z"/>
  </g>
  <g>
   <path class="fil1 str0" d="M911 1038c0,-115 -93,-208 -208,-208 -115,0 -208,93 -208,208 0,115 93,208 208,208 115,0 208,-93 208,-208z"/>
   <line class="fil1 str0" x1="651" y1="934" x2="755" y2= "934" />
   <line class="fil1 str0" x1="703" y1="986" x2="703" y2= "882" />
   <line class="fil1 str0" x1="651" y1="1141" x2="755" y2= "1141" />
  </g>
  <text x="208" y="1080"  class="fil3 fnt0">V</text>
  <text x="325" y="1120"  class="fil3 fnt1">S</text>
  <text x="1178" y="873"  class="fil3 fnt0">R</text>
  <text x="1304" y="913"  class="fil3 fnt1">1</text>
  <text x="1178" y="1288"  class="fil3 fnt0">R</text>
  <text x="1304" y="1328"  class="fil3 fnt1">2</text>
  <text x="2008" y="1496"  class="fil3 fnt0">R</text>
  <text x="2135" y="1535"  class="fil3 fnt1">L</text>
  <circle class="fil3 str0" cx="1533" cy="1868" r="21"/>
  <g>
   <g>
    <path class="fil1 str0" d="M3816 1038c0,-115 -93,-208 -208,-208 -115,0 -208,93 -208,208 0,115 93,208 208,208 115,0 208,-93 208,-208z"/>
    <line class="fil1 str0" x1="3557" y1="934" x2="3661" y2= "934" />
    <line class="fil1 str0" x1="3609" y1="986" x2="3609" y2= "882" />
    <line class="fil1 str0" x1="3557" y1="1141" x2="3661" y2= "1141" />
   </g>
   <text x="3113" y="1080"  class="fil3 fnt0">V</text>
   <text x="3230" y="1120"  class="fil3 fnt1">S</text>
   <text x="4083" y="666"  class="fil3 fnt0">R</text>
   <text x="4210" y="705"  class="fil3 fnt1">1</text>
   <text x="4083" y="1496"  class="fil3 fnt0">R</text>
   <text x="4210" y="1535"  class="fil3 fnt1">2</text>
   <text x="4913" y="1496"  class="fil3 fnt0">R</text>
   <text x="5040" y="1535"  class="fil3 fnt1">L</text>
   <circle class="fil3 str0" cx="4439" cy="1868" r="21"/>
   <polygon class="fil1 str0" points="4439,1660 4439,1868 5269,1868 5269,1660 5196,1626 5342,1557 5196,1487 5342,1418 5196,1349 5342,1280 5269,1245 5269,1038 4439,1038 4439,1245 4512,1280 4366,1349 4512,1418 4366,1487 4512,1557 4366,1626 "/>
   <path class="fil1 str0" d="M3609 830l0 -623 830 0 0 208 73 35 -145 69 145 69 -145 69 145 69 -145 69 73 35 0 208m-830 208l0 623 830 0"/>
   <circle class="fil3 str0" cx="4439" cy="1038" r="21"/>
  </g>
  <line class="fil1 str0" x1="2882" y1="1567" x2="3090" y2= "1567" />
  <line class="fil1 str0" x1="2882" y1="1650" x2="3090" y2= "1650" />
 </g>
</svg>
